<svg xmlns="http://www.w3.org/2000/svg" width="719.374" height="713.172" viewBox="0 0 719.374 713.172">
  <path id="Subtraction_8" data-name="Subtraction 8" d="M598.186,615.965h0l-37.814-12.271h35.208l2.607,12.271Zm-5.483-25.8H518.674l-38.491-12.491H590.049l2.654,12.49Zm-5.529-26.022H438.487L400,551.651H584.52l2.654,12.49Zm-5.529-26.022H358.3l-38.49-12.49H578.99l2.654,12.49ZM576.115,512.1H512.884l-2.66-12.49h63.237l2.654,12.49Zm-88.752,0H278.113l-38.49-12.49H448.874L487.361,512.1h0Zm83.222-26.022H507.343l-2.66-12.49h63.249l2.654,12.49Zm-163.41,0H197.925l-38.49-12.49H368.687l38.487,12.489h0Zm157.881-26.022H501.8l-2.66-12.49H562.4l2.654,12.49Zm-238.068,0H117.738l-38.49-12.49H288.5l38.487,12.489h0Zm232.539-26.021H496.26l-2.66-12.49h63.273l2.654,12.49Zm-312.725,0H92.347l13.88-12.49H208.313l38.487,12.49h0Zm-31.964-26.022H121.265l13.88-12.49h93.585l-13.893,12.49Zm339.16,0H490.719l-2.66-12.49h63.285L554,408.01ZM243.781,381.99h-93.6L164.063,369.5h93.611L243.781,381.99Zm304.688,0H485.178l-2.66-12.491h63.3l2.654,12.49ZM272.724,355.968H179.1l13.88-12.49h93.636l-13.893,12.49Zm270.215,0h-63.3l-2.66-12.49h63.308l2.654,12.49ZM301.667,329.946H208.018l13.88-12.49H315.56l-13.893,12.49Zm235.743,0H474.1l-2.66-12.49h63.32l2.654,12.49Zm-5.529-26.021H468.554l-2.66-12.49h63.332l2.654,12.49Zm-201.271,0H236.935l13.88-12.49H344.5l-13.893,12.49ZM359.553,277.9h-93.7l13.88-12.49h93.713L359.553,277.9Zm166.8,0H463.013l-2.66-12.49H523.7l2.654,12.49ZM388.5,251.881H294.77l13.881-12.49h93.738L388.5,251.881Zm132.326,0h-63.35l-2.66-12.49h63.356l2.654,12.49Zm-5.529-26.021H451.931l-2.66-12.49h63.368l2.654,12.49Zm-97.853,0H323.688l13.88-12.49h93.764l-13.893,12.49Zm28.943-26.022H352.605l13.88-12.49H507.109l2.654,12.49H446.39v-.005l-.006.005Zm57.852-26.022H381.523l13.88-12.49H501.58l2.654,12.49ZM498.7,147.794H410.44l13.88-12.49h71.73l2.654,12.49Zm-5.529-26.022H439.358l13.88-12.49h37.283l2.654,12.49Zm-5.529-26.021H468.275l16.262-14.633,3.109,14.633Z" transform="translate(828.742 229.314) rotate(119)" fill="#26a4dd" opacity="0.19"/>
</svg>
